<svg width="618" height="289" viewBox="0 0 618 289" fill="none" xmlns="http://www.w3.org/2000/svg">
<path d="M490.5 51H456L416 218H451L490.5 51Z" fill="black"/>
<path d="M527 106.5H491.5L514.5 218L480.5 271L517.5 272L618 104.5H581L538.5 179L527 106.5Z" fill="black"/>
<path d="M278 78.5C264.8 78.5 260.167 95.8333 259.5 104.5H286.5L281 130H253.5L233.5 219H200L219.5 130H203L208.5 104.5H226.5C226.833 99.8333 229.4 87 237 73C244.6 59 266.5 53.1667 276.5 52H318L312 78.5H278Z" fill="black"/>
<path d="M331 105H297.5L271 219H305.5L331 105Z" fill="black"/>
<path d="M400 65.5H367.5L359 104.5H342L336.5 130.5H352.5L340 188.5C339 206.5 344.5 211 354.5 217.5C362.5 222.7 388.5 219.667 400.5 217.5L404 192.5C376.4 200.5 373.5 188.167 375.5 181L386 130.5H416.5L422 104.5H392L400 65.5Z" fill="black"/>
<path d="M315 280.499V253.499H321.5V257C324.3 254.2 328.333 253.166 330 252.999C334.8 251.799 339 257.499 340.5 260.499V280.499H333V261.999C328.6 255.999 323.5 259.499 321.5 261.999V280.499H315Z" fill="black"/>
<path d="M352.5 280L341.5 254H348L356 272L363 254H370L359 280H352.5Z" fill="black" stroke="black"/>
<path d="M256.5 259V254H278.5V259L264.5 274.5H279.5V280H256.5V275.5L270 259H256.5Z" fill="black" stroke="black"/>
<circle cx="297" cy="266" r="13.5" fill="black" stroke="black"/>
<path d="M289 270L286.5 267L304 259.5L297.5 276L294 274.5L297.5 266.5L289 270Z" fill="white"/>
<path d="M373.5 281V253.5H379.5L380 281H373.5Z" fill="black"/>
<circle cx="376.5" cy="246.5" r="3.5" fill="black"/>
<circle cx="398" cy="267" r="13.5" fill="black" stroke="black"/>
<circle cx="398" cy="267" r="7.5" fill="white" stroke="black"/>
<path d="M212.024 278.432C210.992 278.432 210.056 278.288 209.216 278C208.4 277.688 207.68 277.28 207.056 276.776C206.432 276.272 205.916 275.684 205.508 275.012L205.256 278H202.52V252.08H205.544V262.844C206.12 261.908 206.948 261.104 208.028 260.432C209.108 259.76 210.44 259.424 212.024 259.424C213.776 259.424 215.312 259.844 216.632 260.684C217.952 261.5 218.972 262.628 219.692 264.068C220.436 265.484 220.808 267.104 220.808 268.928C220.808 270.752 220.436 272.384 219.692 273.824C218.972 275.264 217.952 276.392 216.632 277.208C215.312 278.024 213.776 278.432 212.024 278.432ZM211.664 275.804C212.84 275.804 213.884 275.516 214.796 274.94C215.708 274.364 216.416 273.572 216.92 272.564C217.448 271.532 217.712 270.32 217.712 268.928C217.712 267.56 217.448 266.36 216.92 265.328C216.416 264.296 215.708 263.492 214.796 262.916C213.884 262.34 212.84 262.052 211.664 262.052C210.464 262.052 209.408 262.34 208.496 262.916C207.584 263.492 206.876 264.296 206.372 265.328C205.868 266.36 205.616 267.56 205.616 268.928C205.616 270.32 205.868 271.532 206.372 272.564C206.876 273.572 207.584 274.364 208.496 274.94C209.408 275.516 210.464 275.804 211.664 275.804ZM225.594 285.92L230.022 275.984H228.978L221.85 259.856H225.126L231.03 273.716L237.222 259.856H240.354L228.762 285.92H225.594Z" fill="#8B8B8B"/>
<path d="M192.982 63.1419L106.248 235L78.0601 209.803L121.427 127.104L28.1884 165.223L0 140.026L192.982 63.1419Z" fill="url(#paint0_linear_819_383)"/>
<defs>
<linearGradient id="paint0_linear_819_383" x1="-1.71024e-06" y1="241" x2="179" y2="67" gradientUnits="userSpaceOnUse">
<stop stop-color="#7CD7A7"/>
<stop offset="1" stop-color="#CAE15F"/>
</linearGradient>
</defs>
</svg>
