<svg width="418" height="103" viewBox="0 0 418 103" fill="none" xmlns="http://www.w3.org/2000/svg">
<path d="M24.64 82.18H66.22V100.66H0V85.26L40.74 21.14H0.98V2.66H65.38V17.92L24.64 82.18Z" fill="black"/>
<path d="M135.048 91.98C127.861 99.0733 119.088 102.62 108.728 102.62C98.3675 102.62 89.5942 99.0733 82.4075 91.98C75.3142 84.7933 71.7675 76.02 71.7675 65.66C71.7675 55.3 75.3142 46.5733 82.4075 39.48C89.5942 32.2933 98.3675 28.7 108.728 28.7C119.088 28.7 127.861 32.2933 135.048 39.48C142.234 46.5733 145.827 55.3 145.827 65.66C145.827 76.02 142.234 84.7933 135.048 91.98ZM95.1475 79.52C98.7875 83.16 103.314 84.98 108.728 84.98C114.141 84.98 118.668 83.16 122.308 79.52C125.948 75.88 127.768 71.26 127.768 65.66C127.768 60.06 125.948 55.44 122.308 51.8C118.668 48.16 114.141 46.34 108.728 46.34C103.314 46.34 98.7875 48.16 95.1475 51.8C91.6008 55.44 89.8275 60.06 89.8275 65.66C89.8275 71.26 91.6008 75.88 95.1475 79.52Z" fill="black"/>
<path d="M197.452 28.7C205.106 28.7 211.406 31.2667 216.353 36.4C221.393 41.5333 223.913 48.6267 223.913 57.68V100.66H205.853V59.92C205.853 55.2533 204.592 51.7067 202.072 49.28C199.552 46.76 196.193 45.5 191.993 45.5C187.326 45.5 183.592 46.9467 180.792 49.84C177.992 52.7333 176.592 57.0733 176.592 62.86V100.66H158.533V30.66H176.592V38.5C180.979 31.9667 187.932 28.7 197.452 28.7Z" fill="black"/>
<path d="M284.163 30.66H304.043L277.443 100.66H256.863L230.263 30.66H250.143L267.083 79.66L284.163 30.66Z" fill="black"/>
<path d="M321.711 22.26C318.725 22.26 316.111 21.1867 313.871 19.04C311.725 16.8 310.651 14.1867 310.651 11.2C310.651 8.21334 311.725 5.6 313.871 3.36C316.111 1.12 318.725 0 321.711 0C324.791 0 327.405 1.12 329.551 3.36C331.791 5.6 332.911 8.21334 332.911 11.2C332.911 14.1867 331.791 16.8 329.551 19.04C327.405 21.1867 324.791 22.26 321.711 22.26ZM312.751 100.66V30.66H330.811V100.66H312.751Z" fill="black"/>
<path d="M406.981 91.98C399.794 99.0733 391.021 102.62 380.661 102.62C370.301 102.62 361.528 99.0733 354.341 91.98C347.248 84.7933 343.701 76.02 343.701 65.66C343.701 55.3 347.248 46.5733 354.341 39.48C361.528 32.2933 370.301 28.7 380.661 28.7C391.021 28.7 399.794 32.2933 406.981 39.48C414.168 46.5733 417.761 55.3 417.761 65.66C417.761 76.02 414.168 84.7933 406.981 91.98ZM367.081 79.52C370.721 83.16 375.248 84.98 380.661 84.98C386.074 84.98 390.601 83.16 394.241 79.52C397.881 75.88 399.701 71.26 399.701 65.66C399.701 60.06 397.881 55.44 394.241 51.8C390.601 48.16 386.074 46.34 380.661 46.34C375.248 46.34 370.721 48.16 367.081 51.8C363.534 55.44 361.761 60.06 361.761 65.66C361.761 71.26 363.534 75.88 367.081 79.52Z" fill="black"/>
</svg>
