<svg width="16" height="11" viewBox="0 0 16 11" fill="none" xmlns="http://www.w3.org/2000/svg">
<path d="M5.368 2.332C5.368 3.172 5.028 4.004 4.348 4.828H5.416V5.752H3.46L3.34 5.86C3.3 6.252 3.26 6.632 3.22 7C3.116 7.824 3.064 8.28 3.064 8.368C3.064 8.784 3.244 8.992 3.604 8.992C3.996 8.992 4.36 8.768 4.696 8.32C5.04 7.864 5.304 7.284 5.488 6.58C5.56 6.604 5.66 6.672 5.788 6.784C5.916 6.888 6.004 6.98 6.052 7.06C5.924 7.724 5.636 8.36 5.188 8.968C4.964 9.28 4.68 9.536 4.336 9.736C3.944 9.968 3.5 10.084 3.004 10.084C2.516 10.084 2.132 9.948 1.852 9.676C1.572 9.396 1.432 9.016 1.432 8.536C1.432 8.28 1.532 7.352 1.732 5.752H0.88C0.872 5.672 0.868 5.544 0.868 5.368C0.868 5.184 0.904 5.004 0.976 4.828H1.84C1.952 3.932 2.028 3.312 2.068 2.968C2.108 2.616 2.156 2.344 2.212 2.152C2.268 1.952 2.356 1.744 2.476 1.528C2.716 1.088 3.152 0.868 3.784 0.868C4.84 0.868 5.368 1.356 5.368 2.332ZM3.472 4.66C4.208 3.852 4.576 3.128 4.576 2.488C4.576 2.104 4.432 1.912 4.144 1.912C3.96 1.928 3.836 2.048 3.772 2.272C3.716 2.496 3.66 2.86 3.604 3.364C3.556 3.868 3.524 4.18 3.508 4.3L3.472 4.66Z" fill="#261E41"/>
<path d="M8.77609 10L9.23209 6.016C9.23209 5.792 9.17609 5.608 9.06409 5.464C8.96009 5.312 8.77209 5.236 8.50009 5.236C8.22809 5.236 8.00409 5.368 7.82809 5.632C7.65209 5.888 7.54009 6.16 7.49209 6.448C7.21209 8.44 7.05609 9.624 7.02409 10H5.41609L6.07609 4.36C6.41209 4.272 6.66809 4.228 6.84409 4.228C7.34809 4.228 7.62409 4.396 7.67209 4.732C8.06409 4.396 8.49209 4.228 8.95609 4.228C9.88409 4.228 10.4761 4.504 10.7321 5.056C11.1241 4.496 11.6841 4.216 12.4121 4.216C12.9481 4.216 13.3721 4.356 13.6841 4.636C13.9961 4.908 14.1521 5.252 14.1521 5.668C14.1521 5.788 14.1281 6 14.0801 6.304C13.8961 7.504 13.8041 8.208 13.8041 8.416C13.8041 8.792 13.9281 8.98 14.1761 8.98C14.3841 8.98 14.6041 8.844 14.8361 8.572C15.0761 8.292 15.2681 7.864 15.4121 7.288C15.6841 7.576 15.8481 7.804 15.9041 7.972C15.4881 9.364 14.7521 10.06 13.6961 10.06C13.2001 10.06 12.8321 9.908 12.5921 9.604C12.3521 9.3 12.2321 8.98 12.2321 8.644L12.5201 5.992C12.5201 5.776 12.4641 5.596 12.3521 5.452C12.2401 5.308 12.0601 5.236 11.8121 5.236C11.5721 5.236 11.3601 5.328 11.1761 5.512C10.9921 5.696 10.8641 5.932 10.7921 6.22C10.5521 8.252 10.3961 9.512 10.3241 10H8.77609Z" fill="#FF0730"/>
</svg>
