<svg width="450" height="238" viewBox="0 0 450 238" fill="none" xmlns="http://www.w3.org/2000/svg">
<path d="M99.7656 157.875C100.286 157.875 100.958 157.802 101.776 157.427C104.604 156.089 106.917 146.177 113.396 115.854C118.094 93.9479 123.979 66.6042 130.76 44.5521C134.484 32.7083 138.057 23.3958 141.635 16.9115C145.51 9.76042 149.307 5.8125 152.813 5.21354C153.703 5.06771 154.526 4.98958 155.271 4.98958C157.953 4.98958 160.188 5.73437 162.052 7.375C170.844 14.526 171.885 37.1042 172.854 58.9323C173.896 81.2083 174.865 102.219 183.359 110.641C186.042 113.323 189.318 114.365 192.896 114.365C201.688 114.365 212.042 108.031 219.047 103.781C219.495 103.484 219.719 102.964 219.719 102.443C219.719 102.219 219.719 101.995 219.568 101.771C219.271 101.323 218.823 101.104 218.302 101.104C218.078 101.104 217.781 101.177 217.557 101.323C210.849 105.349 200.865 111.458 192.969 111.458C190.063 111.458 187.531 110.641 185.443 108.625C177.698 100.953 176.729 79.4948 175.76 58.7813C174.714 35.3125 173.672 13.1094 163.911 5.06771C161.526 3.13021 158.625 2.16146 155.344 2.16146C154.375 2.16146 153.406 2.23437 152.365 2.38542C144.021 3.72396 136.344 16.8385 128 43.7344C121.146 65.8594 115.26 93.276 110.568 115.255C108.255 126.208 106.172 135.599 104.458 142.75C102 152.438 100.88 154.375 100.432 154.818C100.286 154.896 99.9896 155.042 99.7656 155.042L99.5417 154.969C99.1667 154.672 98.4948 153.625 98.4948 149.307C98.4948 148.188 98.5729 146.849 98.6458 145.281C99.0208 139.396 100.063 131.573 101.255 122.557C103.49 105.943 106.245 85.6042 106.245 66.3802C106.245 41.8698 101.776 19.2188 86.0573 8.41667C79.2031 3.72396 70.1094 0.890625 59.6823 0.145833C57.9688 0 56.2552 0 54.5417 0C46.2708 0 37.7031 1.26563 30.1042 3.875C15.349 8.79167 5.14063 17.5052 1.49479 28.4583C0.526043 31.3646 0 34.3438 0 37.474C0 45.7448 3.57813 54.6875 10.5052 63.776C17.2135 72.6406 26.8229 81.1354 37.5521 87.6927C47.2396 93.5781 56.2552 96.8542 62.5885 96.8542H63.5573C64.375 96.8542 64.9688 96.1094 64.9688 95.3646C64.8958 94.5469 64.224 93.9479 63.4063 93.9479H62.5885C50.8906 93.9479 26.599 80.0938 12.8177 61.9844C7.90104 55.6563 2.90625 46.7865 2.90625 37.3281C2.90625 34.7188 3.28125 32.0365 4.17708 29.3542C7.60417 19.3698 17.1406 11.25 30.9948 6.63021C38.5208 4.09896 46.5677 2.90625 54.3177 2.90625C65.8646 2.90625 76.8177 5.58854 84.4167 10.875C99.1667 20.9323 103.417 42.6146 103.417 66.3073C103.417 85.3073 100.656 105.646 98.4219 122.188C96.7083 134.552 95.5938 143.344 95.5938 149.083C95.5938 153.479 96.2604 156.089 97.8281 157.276C98.276 157.578 98.8698 157.875 99.7656 157.875Z" fill="#2B211C"/>
<path d="M220.088 111.01C220.535 112.875 221.207 114.51 222.098 115.927C223.739 118.463 225.973 119.729 228.806 119.729C231.114 119.729 233.869 118.385 236.926 115.703C239.978 113.099 243.556 107.807 247.577 99.9113L248.103 98.7915L248.249 104.083C248.473 109.37 249.296 112.427 250.707 113.245C251.379 113.62 252.124 113.844 252.869 113.844C255.181 113.844 257.785 112.5 260.843 109.89C263.228 107.807 265.535 105.198 267.77 102.146C267.843 101.922 267.921 101.698 267.921 101.474C267.921 100.953 267.697 100.578 267.176 100.354C266.952 100.281 266.801 100.208 266.577 100.208C266.056 100.208 265.686 100.432 265.384 100.88C263.004 104.005 260.692 106.39 258.53 108.104C256.369 109.818 254.733 110.64 253.686 110.64C251.973 110.64 251.082 107.958 251.082 102.515C251.082 101.401 251.155 100.208 251.228 98.9426C251.452 95.7394 251.53 93.7238 251.53 92.8332C251.53 91.5623 251.009 90.8957 249.963 90.7446C249.442 90.7446 248.994 90.9686 248.624 91.4894C248.249 92.0103 247.577 93.4269 246.463 95.8853C241.916 105.052 238.343 110.859 235.582 113.245C232.827 115.703 230.593 116.896 228.879 116.896C226.718 116.896 225.155 115.927 224.035 113.917C223.218 112.5 222.77 110.713 222.77 108.625C222.77 106.614 223.291 104.229 224.332 101.625C225.603 98.6405 227.686 96.0363 230.52 93.8748C231.634 93.0571 232.827 92.3853 234.093 92.0103C236.108 91.4165 237.895 91.2655 239.608 91.6405C241.322 92.0103 242.291 92.5311 242.515 93.2759L242.588 94.0988C242.811 94.7707 243.332 95.0676 244.301 94.9165C245.27 94.6196 245.494 93.8019 245.119 92.5311C244.822 91.5623 243.931 90.5988 242.436 89.703C239.754 88.4373 236.702 88.3592 233.202 89.4061C231.785 89.9269 230.296 90.6717 228.879 91.6405C224.332 95.2915 221.426 99.6092 220.311 104.531C219.791 106.838 219.713 109 220.088 111.01Z" fill="#2B211C"/>
<path d="M273.938 79.2708C275.652 70.2551 277.74 64.5937 280.199 62.2864V62.6562C280.199 63.4791 279.975 65.1145 279.6 67.427C279.157 69.7343 278.261 73.3124 276.996 78.0051C275.579 82.9947 274.011 88.2135 272.225 93.578C272.522 88.5833 273.121 83.8176 273.938 79.2708ZM272.079 103.859H282.954C283.329 103.859 283.699 103.708 283.923 103.411C284.147 103.115 284.298 102.818 284.298 102.443C284.298 102.068 284.147 101.698 283.923 101.401C283.626 101.177 283.251 101.026 282.881 101.026H281.313C280.647 101.104 279.902 101.104 279.23 101.104H277.22C276.475 101.026 275.725 101.026 275.058 101.026H272.6C273.569 98.2708 274.683 95.0676 275.876 91.3437C277.292 86.9478 278.709 82.401 279.975 77.8541C281.24 73.1614 282.136 69.3645 282.584 66.4583C282.881 64.8176 283.027 63.4791 283.027 62.4322C283.027 61.6145 282.954 60.9426 282.803 60.4947C282.584 60.1249 282.36 59.7499 282.136 59.526C281.688 59.1562 281.24 59.0051 280.792 59.0051C280.423 59.0051 280.121 59.0833 279.824 59.2291C277.516 60.4947 275.652 63.1041 274.235 66.9062C272.824 70.703 271.855 74.651 271.183 78.7499C269.917 86.4999 269.246 93.8749 269.246 101.026H267.084C266.714 101.104 266.412 101.177 266.188 101.401C265.891 101.625 265.746 101.995 265.746 102.37V102.516C265.746 102.891 265.891 103.187 266.188 103.411C266.412 103.708 266.787 103.859 267.157 103.859H269.246C269.246 105.125 269.319 106.391 269.397 107.583C269.615 111.234 270.063 114.213 270.735 116.448C271.553 119.208 272.746 120.844 274.235 121.292C274.683 121.443 275.131 121.516 275.579 121.516C276.548 121.516 277.813 121.068 279.376 120.177C280.871 119.281 282.73 117.495 284.964 114.885C287.126 112.276 289.808 108.479 292.938 103.484C293.089 103.187 293.162 102.963 293.162 102.74C293.162 102.219 292.938 101.771 292.49 101.547C292.266 101.401 291.97 101.323 291.746 101.323C291.298 101.323 290.928 101.547 290.553 101.995C287.501 106.838 285.042 110.417 283.027 112.797C281.016 115.255 279.376 116.823 278.188 117.568C276.996 118.312 276.1 118.682 275.506 118.682C275.428 118.682 275.355 118.682 275.282 118.609H275.058C274.683 118.536 274.162 117.713 273.569 116C272.97 114.365 272.522 111.458 272.225 107.359C272.152 106.391 272.079 105.349 272.079 104.229V103.859Z" fill="#2B211C"/>
<path d="M293.378 111.01C293.826 112.875 294.498 114.51 295.388 115.927C297.029 118.463 299.263 119.729 302.097 119.729C304.404 119.729 307.159 118.385 310.217 115.703C313.269 113.099 316.847 107.807 320.868 99.9113L321.394 98.7915L321.539 104.083C321.763 109.37 322.586 112.427 323.998 113.245C324.67 113.62 325.414 113.844 326.159 113.844C328.472 113.844 331.076 112.5 334.133 109.89C336.519 107.807 338.826 105.198 341.06 102.146C341.133 101.922 341.211 101.698 341.211 101.474C341.211 100.953 340.987 100.578 340.467 100.354C340.243 100.281 340.092 100.208 339.868 100.208C339.347 100.208 338.977 100.432 338.675 100.88C336.295 104.005 333.982 106.39 331.821 108.104C329.659 109.818 328.024 110.64 326.977 110.64C325.263 110.64 324.373 107.958 324.373 102.515C324.373 101.401 324.446 100.208 324.519 98.9426C324.743 95.7394 324.821 93.7238 324.821 92.8332C324.821 91.5623 324.3 90.8957 323.253 90.7446C322.732 90.7446 322.284 90.9686 321.914 91.4894C321.539 92.0103 320.868 93.4269 319.753 95.8853C315.206 105.052 311.633 110.859 308.873 113.245C306.118 115.703 303.883 116.896 302.17 116.896C300.008 116.896 298.446 115.927 297.326 113.917C296.508 112.5 296.06 110.713 296.06 108.625C296.06 106.614 296.581 104.229 297.623 101.625C298.894 98.6405 300.977 96.0363 303.81 93.8748C304.925 93.0571 306.118 92.3853 307.383 92.0103C309.399 91.4165 311.185 91.2655 312.899 91.6405C314.612 92.0103 315.581 92.5311 315.805 93.2759L315.878 94.0988C316.102 94.7707 316.623 95.0676 317.592 94.9165C318.56 94.6196 318.784 93.8019 318.409 92.5311C318.112 91.5623 317.222 90.5988 315.727 89.703C313.045 88.4373 309.993 88.3592 306.493 89.4061C305.076 89.9269 303.586 90.6717 302.17 91.6405C297.623 95.2915 294.717 99.6092 293.602 104.531C293.081 106.838 293.003 109 293.378 111.01Z" fill="#2B211C"/>
<path d="M345.369 100.057C344.546 88.8853 344.697 77.7811 345.812 66.828C345.812 66.4582 346.036 64.3696 346.557 60.6457C347.005 56.9217 347.75 52.6717 348.718 47.8332C349.541 44.0311 350.286 41.0519 351.104 38.7394C351.848 36.505 352.593 34.7915 353.265 33.6769C353.937 32.5571 354.458 31.7394 354.979 31.3644C355.5 30.9946 355.875 30.8436 356.093 30.8436H356.171C357.734 30.9165 359.151 31.8853 360.416 33.7498C361.682 35.6873 362.505 37.8488 362.875 40.3071C363.098 41.7238 363.322 43.2134 363.473 44.7759C363.994 49.3957 363.994 54.6873 363.395 60.7186C362.729 66.755 361.088 73.0884 358.333 79.8696C355.572 86.6457 351.255 93.354 345.369 100.057ZM372.562 101.849C371.739 103.114 370.328 105.125 368.39 107.807C366.453 110.489 364.364 112.724 362.203 114.588C359.151 117.193 356.765 118.463 355.125 118.463C353.859 118.536 352.89 118.385 352.223 118.088C350.51 117.568 349.166 116.078 348.125 113.469C347.083 110.937 346.338 107.734 345.812 103.781C354.906 94.1717 361.015 83.3696 364.218 71.3748C366.526 62.8071 367.197 54.0884 366.302 45.0728C366.156 43.3592 365.932 41.5728 365.63 39.8592C365.109 36.6561 363.994 33.9009 362.354 31.5155C360.64 29.203 358.557 28.0103 355.947 28.0103H355.875C353.562 28.2342 351.479 30.4686 349.687 34.6457C348.348 37.6978 347.156 41.9425 346.036 47.3071C345.067 52.1509 344.322 56.4738 343.802 60.2707C343.281 64.0728 343.057 66.1613 342.984 66.5311C342.906 67.4998 342.687 70.5571 342.385 75.6978C342.015 80.8384 341.942 86.6457 342.088 93.13C342.239 96.854 342.463 100.208 342.833 103.26C342.833 103.484 342.906 103.708 342.984 103.932C344.25 113.989 347.156 119.651 351.552 120.844C352.666 121.219 353.937 121.292 355.427 121.219C356.916 121.146 358.63 120.474 360.489 119.354C363.619 117.495 366.526 114.885 369.135 111.458C371.739 108.104 373.677 105.349 374.947 103.338C375.093 103.036 375.166 102.739 375.166 102.443C375.093 101.995 374.869 101.625 374.5 101.401C374.276 101.177 373.979 101.104 373.677 101.177C373.234 101.25 372.859 101.474 372.562 101.849Z" fill="#2B211C"/>
<path d="M380.822 84.4113C381.192 84.4113 381.567 84.3384 381.937 84.1873C383.056 83.6665 383.65 82.6248 383.65 81.0571C383.65 79.8696 383.129 79.0467 382.015 78.5259H381.343C380.822 78.5259 380.301 78.6769 379.78 79.0467C378.884 79.6457 378.509 80.6873 378.509 82.1769C378.509 83.0728 378.812 83.6665 379.556 84.0415C380.004 84.3384 380.447 84.4113 380.822 84.4113ZM381.192 121.739C382.239 121.739 383.577 121.219 385.218 120.25C386.858 119.281 388.942 117.495 391.551 114.885C394.155 112.276 397.364 108.552 401.233 103.708C401.457 103.484 401.535 103.187 401.535 102.89C401.535 102.443 401.312 102.068 400.937 101.698C400.713 101.474 400.416 101.401 400.119 101.401C399.671 101.401 399.296 101.625 398.999 101.995C390.207 113.245 384.249 118.906 381.192 118.906C379.478 118.609 378.588 115.479 378.437 109.448C378.437 104.604 379.035 99.1665 380.15 93.0571L380.374 91.5623C380.374 90.7446 380.004 90.2967 379.181 90.0728C378.285 90.0728 377.692 90.6717 377.468 91.7863C376.202 98.2707 375.608 104.005 375.608 109.224C375.608 117.568 377.468 121.739 381.192 121.739Z" fill="#2B211C"/>
<path d="M401.824 111.01C402.272 112.875 402.944 114.51 403.834 115.927C405.475 118.463 407.709 119.729 410.543 119.729C412.85 119.729 415.605 118.385 418.663 115.703C421.715 113.099 425.293 107.807 429.314 99.9113L429.84 98.7915L429.986 104.083C430.209 109.37 431.032 112.427 432.444 113.245C433.116 113.62 433.861 113.844 434.605 113.844C436.918 113.844 439.522 112.5 442.579 109.89C444.965 107.807 447.272 105.198 449.506 102.146C449.579 101.922 449.657 101.698 449.657 101.474C449.657 100.953 449.433 100.578 448.913 100.354C448.689 100.281 448.538 100.208 448.314 100.208C447.793 100.208 447.423 100.432 447.121 100.88C444.741 104.005 442.428 106.39 440.267 108.104C438.105 109.818 436.47 110.64 435.423 110.64C433.709 110.64 432.819 107.958 432.819 102.515C432.819 101.401 432.892 100.208 432.965 98.9426C433.189 95.7394 433.267 93.7238 433.267 92.8332C433.267 91.5623 432.746 90.8957 431.699 90.7446C431.178 90.7446 430.73 90.9686 430.361 91.4894C429.986 92.0103 429.314 93.4269 428.199 95.8853C423.652 105.052 420.079 110.859 417.319 113.245C414.564 115.703 412.329 116.896 410.616 116.896C408.454 116.896 406.892 115.927 405.772 113.917C404.954 112.5 404.506 110.713 404.506 108.625C404.506 106.614 405.027 104.229 406.069 101.625C407.34 98.6405 409.423 96.0363 412.256 93.8748C413.371 93.0571 414.564 92.3853 415.829 92.0103C417.845 91.4165 419.631 91.2655 421.345 91.6405C423.058 92.0103 424.027 92.5311 424.251 93.2759L424.324 94.0988C424.548 94.7707 425.069 95.0676 426.038 94.9165C427.006 94.6196 427.23 93.8019 426.855 92.5311C426.558 91.5623 425.668 90.5988 424.173 89.703C421.491 88.4373 418.439 88.3592 414.939 89.4061C413.522 89.9269 412.032 90.6717 410.616 91.6405C406.069 95.2915 403.163 99.6092 402.048 104.531C401.527 106.838 401.449 109 401.824 111.01Z" fill="#2B211C"/>
<path d="M136.344 100.62C134.781 97.7142 132.396 94.6569 129.12 91.5267C125.917 88.3236 121.891 85.7194 117.047 83.558C112.13 81.3965 106.469 80.1309 100.062 79.683C93.1354 79.2351 85.9791 79.8288 78.5312 81.4694C71.0781 83.183 63.8541 85.5684 56.776 88.7715C49.6197 91.9017 43.0676 95.5528 37.0312 99.6517C25.7812 107.251 16.9895 115.667 10.5051 124.834C4.77077 133.178 1.56764 141.298 1.04681 149.12C0.968685 150.761 0.968685 152.324 1.11973 153.891C1.71348 159.777 4.77077 164.693 10.2864 168.641C15.7968 172.589 22.7239 176.016 31.1458 178.85C39.4895 181.678 48.2812 184.287 57.4479 186.745C65.7916 188.907 73.6874 191.292 81.2864 193.751C88.8854 196.282 95.1458 199.188 100.062 202.464C104.979 205.745 107.734 209.62 108.255 214.162C108.333 214.834 108.333 215.579 108.333 216.251C108.036 219.6 106.99 222.73 104.979 225.636C102.969 228.469 100.734 230.631 98.276 232.12C94.8489 234.058 90.8958 234.803 86.276 234.501C82.3281 234.204 78.0104 233.162 73.4635 231.298C62.7343 226.829 52.0051 218.855 41.276 207.605C41.052 207.308 40.6822 207.162 40.3854 207.162C39.9374 207.162 39.6406 207.235 39.2656 207.532C38.9687 207.829 38.8176 208.126 38.8176 208.428C38.7447 208.876 38.8958 209.245 39.1926 209.62C47.3124 218.11 55.4322 224.818 63.5572 229.584C71.7499 234.355 79.2031 237.037 86.0572 237.485C91.1979 237.855 95.7395 236.886 99.6874 234.652C102.594 232.938 105.13 230.48 107.365 227.204C109.672 223.995 110.937 220.423 111.161 216.548C111.24 215.652 111.24 214.834 111.161 213.865C110.641 208.652 107.812 204.329 102.818 200.751C97.8281 197.178 91.4218 194.12 83.5208 191.438C75.6979 188.834 67.2812 186.298 58.2656 183.912C49.401 181.605 40.9062 179.074 32.8593 176.391C24.8124 173.709 18.1093 170.506 12.8176 166.855C7.45306 163.204 4.54681 158.808 3.95306 153.667C3.87493 152.251 3.87493 150.834 3.95306 149.344C4.47389 142.115 7.45306 134.443 12.8906 126.469C19.151 117.605 27.7187 109.485 38.6718 102.11C51.7083 93.3184 65.1926 87.433 79.2031 84.3028C86.651 82.7351 93.5052 82.1413 99.8385 82.5892C106.099 83.0371 111.76 84.4486 116.677 86.9069C121.521 89.2194 125.766 92.5736 129.417 96.9694C131.203 98.9799 132.693 101.214 134.036 103.673C137.24 110.157 138.656 117.98 138.135 126.99L138.281 127.365C138.583 127.886 139.104 128.11 139.771 128.037C139.995 128.037 140.37 127.886 140.891 127.662C141.411 127.438 141.635 125.725 141.708 122.376C141.786 119.094 141.26 115.219 140.219 110.678C139.177 106.876 137.911 103.449 136.344 100.62Z" fill="#2B211C"/>
<path d="M128.033 159.178C129.747 150.162 131.835 144.501 134.293 142.193V142.563C134.293 143.386 134.069 145.021 133.694 147.334C133.252 149.641 132.356 153.219 131.09 157.912C129.674 162.902 128.106 168.12 126.319 173.485C126.616 168.49 127.215 163.725 128.033 159.178ZM126.174 183.766H137.049C137.424 183.766 137.793 183.615 138.017 183.318C138.241 183.021 138.392 182.725 138.392 182.35C138.392 181.975 138.241 181.605 138.017 181.308C137.721 181.084 137.346 180.933 136.976 180.933H135.408C134.741 181.011 133.997 181.011 133.325 181.011H131.314C130.569 180.933 129.819 180.933 129.153 180.933H126.694C127.663 178.178 128.778 174.975 129.971 171.251C131.387 166.855 132.804 162.308 134.069 157.761C135.335 153.068 136.231 149.271 136.679 146.365C136.976 144.725 137.122 143.386 137.122 142.339C137.122 141.521 137.049 140.85 136.898 140.402C136.679 140.032 136.455 139.657 136.231 139.433C135.783 139.063 135.335 138.912 134.887 138.912C134.517 138.912 134.215 138.99 133.918 139.136C131.611 140.402 129.747 143.011 128.33 146.813C126.918 150.61 125.95 154.558 125.278 158.657C124.012 166.407 123.34 173.782 123.34 180.933H121.179C120.809 181.011 120.507 181.084 120.283 181.308C119.986 181.532 119.84 181.902 119.84 182.277V182.423C119.84 182.798 119.986 183.094 120.283 183.318C120.507 183.615 120.882 183.766 121.252 183.766H123.34C123.34 185.032 123.413 186.298 123.491 187.49C123.71 191.141 124.158 194.12 124.83 196.355C125.648 199.115 126.84 200.751 128.33 201.199C128.778 201.35 129.226 201.423 129.674 201.423C130.642 201.423 131.908 200.975 133.471 200.084C134.965 199.188 136.825 197.402 139.059 194.792C141.221 192.183 143.903 188.386 147.033 183.391C147.184 183.094 147.257 182.87 147.257 182.646C147.257 182.126 147.033 181.678 146.585 181.454C146.361 181.308 146.064 181.23 145.84 181.23C145.392 181.23 145.023 181.454 144.648 181.902C141.596 186.745 139.137 190.324 137.122 192.704C135.111 195.162 133.471 196.73 132.283 197.475C131.09 198.219 130.194 198.589 129.601 198.589C129.523 198.589 129.45 198.589 129.377 198.516H129.153C128.778 198.443 128.257 197.62 127.663 195.907C127.064 194.271 126.616 191.365 126.319 187.266C126.247 186.298 126.174 185.256 126.174 184.136V183.766Z" fill="#2B211C"/>
<path d="M169.301 200.829C176.681 200.829 185.17 196.657 193.441 183.469C193.592 183.245 193.592 183.021 193.592 182.797C193.592 182.277 193.368 181.829 192.993 181.532C192.769 181.381 192.473 181.308 192.249 181.308C191.728 181.308 191.28 181.532 191.056 181.975C184.353 192.631 177.051 197.995 169.301 197.995C165.952 197.995 162.525 197.027 159.019 195.016C155.368 193.006 152.316 188.756 150.973 183.912C153.358 184.584 155.816 184.959 158.202 184.959C160.212 184.959 162.223 184.657 164.16 184.214C168.634 183.094 172.431 180.787 174.889 177.657C176.53 175.495 177.348 173.183 177.348 171.027C177.348 169.089 176.754 167.225 175.561 165.584C172.879 161.787 169.004 159.698 164.759 159.698H164.087C158.572 160.001 153.207 163.646 149.858 169.537C148.217 172.292 147.4 175.422 147.4 178.771L147.545 181.084L147.473 181.23L147.4 181.756C147.4 182.126 147.545 182.501 147.769 182.725L148.217 184.438C149.707 190.1 153.358 195.089 157.603 197.475C160.957 199.412 164.983 200.829 169.301 200.829ZM158.275 182.126C155.816 182.126 153.134 181.756 150.379 180.787L150.228 178.626C150.228 175.865 150.9 173.183 152.243 170.948C155.144 165.886 159.691 162.756 164.238 162.532H164.832C168.186 162.532 171.165 164.172 173.327 167.225C174.144 168.344 174.592 169.61 174.592 170.948C174.592 172.589 173.92 174.303 172.655 175.943C169.9 179.516 164.608 182.126 158.275 182.126Z" fill="#2B211C"/>
<path d="M199.535 203.881C201.774 203.881 202.441 200.902 204.826 192.855C207.732 181.829 212.873 163.35 221.441 162.459H222.04C227.998 162.459 236.639 170.876 236.639 179.516C236.639 183.246 235.076 186.969 230.977 190.1C226.654 193.376 220.545 195.089 213.618 195.089C211.232 195.089 208.774 194.865 206.316 194.496L206.019 194.417C205.347 194.417 204.826 194.865 204.68 195.688V195.907C204.68 196.506 205.201 197.1 205.868 197.251C208.55 197.699 211.16 197.923 213.691 197.923C221.217 197.923 227.925 196.058 232.691 192.407C237.607 188.756 239.545 184.214 239.545 179.667C239.545 169.61 229.785 159.626 222.04 159.626L221.144 159.699C207.436 161.188 202.743 192.704 199.535 200.381C197.899 196.657 197.524 184.808 197.602 182.871C207.581 165.584 213.842 143.162 213.842 124.61C213.842 115.818 211.831 109.782 206.691 109.782H206.019C203.488 110.079 201.623 112.985 199.837 119.615C196.258 133.027 194.545 157.761 194.545 176.313C194.545 180.709 194.618 184.808 194.842 188.308C195.587 201.798 197.451 203.881 199.535 203.881ZM197.3 178.027V176.016C197.3 159.626 199.014 131.537 203.186 118.126C204.826 112.839 206.17 112.537 206.316 112.537H206.54C209.743 112.537 211.087 117.157 211.087 123.938C211.087 139.136 204.529 165.511 197.3 178.027Z" fill="#2B211C"/>
<path d="M265.68 200.829C273.06 200.829 281.549 196.657 289.82 183.469C289.971 183.245 289.971 183.021 289.971 182.797C289.971 182.277 289.747 181.829 289.372 181.532C289.148 181.381 288.851 181.308 288.628 181.308C288.107 181.308 287.659 181.532 287.435 181.975C280.732 192.631 273.43 197.995 265.68 197.995C262.331 197.995 258.904 197.027 255.398 195.016C251.747 193.006 248.695 188.756 247.351 183.912C249.737 184.584 252.195 184.959 254.581 184.959C256.591 184.959 258.601 184.657 260.539 184.214C265.013 183.094 268.81 180.787 271.268 177.657C272.909 175.495 273.726 173.183 273.726 171.027C273.726 169.089 273.133 167.225 271.94 165.584C269.258 161.787 265.383 159.698 261.138 159.698H260.466C254.95 160.001 249.586 163.646 246.237 169.537C244.596 172.292 243.779 175.422 243.779 178.771L243.924 181.084L243.851 181.23L243.779 181.756C243.779 182.126 243.924 182.501 244.148 182.725L244.596 184.438C246.086 190.1 249.737 195.089 253.982 197.475C257.336 199.412 261.362 200.829 265.68 200.829ZM254.654 182.126C252.195 182.126 249.513 181.756 246.758 180.787L246.607 178.626C246.607 175.865 247.279 173.183 248.622 170.948C251.523 165.886 256.07 162.756 260.617 162.532H261.211C264.565 162.532 267.544 164.172 269.706 167.225C270.523 168.344 270.971 169.61 270.971 170.948C270.971 172.589 270.299 174.303 269.034 175.943C266.279 179.516 260.987 182.126 254.654 182.126Z" fill="#2B211C"/>
<path d="M293.981 179.964C293.158 168.792 293.309 157.688 294.424 146.735C294.424 146.365 294.648 144.277 295.168 140.553C295.616 136.829 296.361 132.579 297.33 127.74C298.153 123.938 298.898 120.959 299.715 118.646C300.46 116.412 301.205 114.698 301.877 113.584C302.549 112.464 303.069 111.646 303.59 111.271C304.111 110.902 304.486 110.751 304.705 110.751H304.783C306.345 110.823 307.762 111.792 309.028 113.657C310.293 115.594 311.116 117.756 311.486 120.214C311.71 121.631 311.934 123.12 312.085 124.683C312.606 129.303 312.606 134.594 312.007 140.626C311.34 146.662 309.7 152.995 306.944 159.777C304.184 166.553 299.866 173.261 293.981 179.964ZM321.174 181.756C320.351 183.021 318.939 185.032 317.002 187.714C315.064 190.396 312.976 192.631 310.814 194.495C307.762 197.1 305.377 198.37 303.736 198.37C302.47 198.443 301.502 198.292 300.835 197.995C299.122 197.475 297.778 195.985 296.736 193.376C295.694 190.844 294.95 187.641 294.424 183.688C303.517 174.079 309.627 163.277 312.83 151.282C315.137 142.714 315.809 133.995 314.913 124.98C314.767 123.266 314.543 121.48 314.241 119.766C313.72 116.563 312.606 113.808 310.965 111.422C309.252 109.11 307.168 107.917 304.559 107.917H304.486C302.174 108.141 300.09 110.376 298.299 114.553C296.96 117.605 295.767 121.85 294.648 127.214C293.679 132.058 292.934 136.381 292.413 140.178C291.892 143.98 291.668 146.068 291.595 146.438C291.517 147.407 291.299 150.464 290.997 155.605C290.627 160.745 290.554 166.553 290.7 173.037C290.851 176.761 291.075 180.115 291.444 183.167C291.444 183.391 291.517 183.615 291.595 183.839C292.861 193.896 295.767 199.558 300.163 200.751C301.278 201.126 302.549 201.198 304.038 201.126C305.528 201.053 307.241 200.381 309.101 199.261C312.231 197.402 315.137 194.792 317.747 191.365C320.351 188.011 322.288 185.256 323.559 183.245C323.705 182.943 323.778 182.646 323.778 182.35C323.705 181.902 323.481 181.532 323.111 181.308C322.887 181.084 322.59 181.011 322.288 181.084C321.845 181.157 321.47 181.381 321.174 181.756Z" fill="#2B211C"/>
<path d="M146.898 218.703H152.002C153.32 218.703 154.486 218.969 155.502 219.495C156.512 220.026 157.299 220.766 157.856 221.724C158.424 222.672 158.71 223.745 158.71 224.953C158.71 226.177 158.424 227.266 157.856 228.224C157.299 229.172 156.512 229.906 155.502 230.432C154.486 230.964 153.32 231.224 152.002 231.224H146.898V218.703ZM151.919 230.078C153.012 230.078 153.971 229.865 154.794 229.432C155.627 228.99 156.262 228.385 156.71 227.62C157.169 226.859 157.398 225.969 157.398 224.953C157.398 223.953 157.169 223.073 156.71 222.307C156.262 221.531 155.627 220.927 154.794 220.495C153.971 220.068 153.012 219.849 151.919 219.849H148.21V230.078H151.919Z" fill="black"/>
<path d="M169.962 218.703H171.275V231.224H169.962V218.703Z" fill="black"/>
<path d="M192.506 230.078V231.224H183.652V218.703H192.235V219.849H184.965V224.307H191.444V225.432H184.965V230.078H192.506Z" fill="black"/>
<path d="M206.345 219.849H201.928V218.703H212.074V219.849H207.658V231.224H206.345V219.849Z" fill="black"/>
<path d="M231.318 230.078V231.224H222.464V218.703H231.047V219.849H223.776V224.307H230.256V225.432H223.776V230.078H231.318Z" fill="black"/>
<path d="M245.157 219.849H240.74V218.703H250.886V219.849H246.469V231.224H245.157V219.849Z" fill="black"/>
<path d="M265.567 226.891V231.224H264.255V226.891L259.255 218.703H260.671L264.963 225.724L269.255 218.703H270.588L265.567 226.891Z" fill="black"/>
<path d="M284.798 225.328L282.235 227.932V231.224H280.923V218.703H282.235V226.266L289.61 218.703H291.131L285.694 224.37L291.506 231.224H289.923L284.798 225.328Z" fill="black"/>
</svg>
