<svg width="95" height="34" viewBox="0 0 95 34" fill="none" xmlns="http://www.w3.org/2000/svg">
<path d="M1.88 8.12H4.9V9H0.95V6.67L0.35 7.02V6.14L0.95 5.79V2H1.88V5.24L3.45 4.31V5.19L1.88 6.12V8.12ZM10.5507 8.46C10.064 8.90667 9.43404 9.13 8.6607 9.13C7.88737 9.13 7.25404 8.90667 6.7607 8.46C6.27404 8.00667 6.0307 7.40333 6.0307 6.65V2H6.9607V6.61C6.9607 7.10333 7.10737 7.49667 7.4007 7.79C7.69404 8.07667 8.11404 8.22 8.6607 8.22C9.20737 8.22 9.62737 8.07667 9.9207 7.79C10.214 7.49667 10.3607 7.10333 10.3607 6.61V2H11.2807V6.65C11.2807 7.40333 11.0374 8.00667 10.5507 8.46ZM18.1927 9H17.0527L14.0327 5.64V9H13.1027V2H14.0327V5.16L16.9527 2H18.0927L15.0027 5.4L18.1927 9ZM24.1577 9L23.5877 7.43H20.4377L19.8677 9H18.8777L21.4877 2H22.5377L25.1477 9H24.1577ZM20.7577 6.56H23.2677L22.0077 3.11L20.7577 6.56ZM28.4479 9.13C27.7946 9.13 27.2346 8.97667 26.7679 8.67C26.3079 8.36333 25.9846 7.94333 25.7979 7.41L26.5979 6.95C26.8712 7.79667 27.4946 8.22 28.4679 8.22C28.9479 8.22 29.3146 8.12333 29.5679 7.93C29.8212 7.73 29.9479 7.46667 29.9479 7.14C29.9479 6.80667 29.8212 6.55667 29.5679 6.39C29.3146 6.22333 28.8912 6.04667 28.2979 5.86C28.0046 5.76667 27.7812 5.69333 27.6279 5.64C27.4746 5.58 27.2812 5.49333 27.0479 5.38C26.8212 5.26 26.6512 5.14 26.5379 5.02C26.4246 4.89333 26.3212 4.73 26.2279 4.53C26.1412 4.33 26.0979 4.10333 26.0979 3.85C26.0979 3.24333 26.3112 2.76333 26.7379 2.41C27.1646 2.05 27.6846 1.87 28.2979 1.87C28.8512 1.87 29.3312 2.01 29.7379 2.29C30.1512 2.57 30.4612 2.94 30.6679 3.4L29.8879 3.85C29.5879 3.13 29.0579 2.77 28.2979 2.77C27.9179 2.77 27.6112 2.86333 27.3779 3.05C27.1446 3.23667 27.0279 3.49 27.0279 3.81C27.0279 4.11667 27.1379 4.35 27.3579 4.51C27.5779 4.67 27.9579 4.83667 28.4979 5.01C28.6912 5.07 28.8279 5.11333 28.9079 5.14C28.9879 5.16667 29.1112 5.21333 29.2779 5.28C29.4512 5.34667 29.5779 5.4 29.6579 5.44C29.7379 5.48 29.8446 5.53667 29.9779 5.61C30.1179 5.68333 30.2212 5.75333 30.2879 5.82C30.3546 5.88667 30.4312 5.97 30.5179 6.07C30.6112 6.16333 30.6779 6.26 30.7179 6.36C30.7579 6.46 30.7912 6.57667 30.8179 6.71C30.8512 6.83667 30.8679 6.97333 30.8679 7.12C30.8679 7.73333 30.6446 8.22333 30.1979 8.59C29.7512 8.95 29.1679 9.13 28.4479 9.13ZM33.0017 8.12H36.4717V9H31.9017V8.19L35.2817 2.88H31.9917V2H36.3917V2.8L33.0017 8.12Z" fill="#142363"/>
<path d="M15 15V29H12.26V19.92L8.32 26.42H8L4.06 19.94V29H1.3V15H4.14L8.16 21.62L12.16 15H15ZM21.1686 26.36H27.0686V29H27.0486C26.3553 29.7333 26.0086 30.3667 26.0086 30.9C25.9819 31.26 26.1486 31.44 26.5086 31.44C26.6553 31.4533 26.8353 31.42 27.0486 31.34V32.96C26.5419 33.1733 26.0086 33.28 25.4486 33.28C24.8753 33.28 24.4086 33.1267 24.0486 32.82C23.7019 32.5267 23.5286 32.0933 23.5286 31.52C23.5286 30.76 23.9686 29.92 24.8486 29H18.4086V15H26.9686V17.64H21.1686V20.62H26.4686V23.22H21.1686V26.36ZM35.3741 15C37.2941 15 38.8941 15.6733 40.1741 17.02C41.4674 18.3667 42.1141 20.0267 42.1141 22C42.1141 23.9733 41.4674 25.6333 40.1741 26.98C38.8941 28.3267 37.2941 29 35.3741 29H29.8141V15H35.3741ZM35.3741 26.36C36.5874 26.36 37.5741 25.96 38.3341 25.16C39.0941 24.3467 39.4741 23.2933 39.4741 22C39.4741 20.7067 39.0941 19.66 38.3341 18.86C37.5741 18.0467 36.5874 17.64 35.3741 17.64H32.5741V26.36H35.3741ZM47.6319 26.36H53.5319V29H44.8719V15H53.4319V17.64H47.6319V20.62H52.9319V23.22H47.6319V26.36ZM63.9573 29L61.1373 24.14H59.0373V29H56.2773V15H61.8773C63.1707 15 64.2707 15.4533 65.1773 16.36C66.084 17.2667 66.5373 18.36 66.5373 19.64C66.5373 20.5067 66.2907 21.3133 65.7973 22.06C65.304 22.7933 64.6507 23.3467 63.8373 23.72L66.9373 29H63.9573ZM59.0373 17.58V21.72H61.8773C62.3973 21.72 62.844 21.52 63.2173 21.12C63.5907 20.7067 63.7773 20.2133 63.7773 19.64C63.7773 19.0667 63.5907 18.58 63.2173 18.18C62.844 17.78 62.3973 17.58 61.8773 17.58H59.0373ZM78.3625 29L77.5225 26.48H71.9425L71.1025 29H68.1225L73.0225 15H76.4425L81.3625 29H78.3625ZM72.8225 23.9H76.6625L74.7425 18.18L72.8225 23.9ZM94.4619 29H91.2819L86.2819 22.44V29H83.5219V15H86.2819V21.18L91.0819 15H94.2619L89.0819 21.8L94.4619 29Z" fill="#142363"/>
</svg>
