<svg width="280" height="194" viewBox="0 0 280 194" fill="none" xmlns="http://www.w3.org/2000/svg">
<path d="M0 8.89122C0 -0.308779 20.3333 -0.608779 30.5 0.391221V150.891C30.5 156.491 34.5 157.891 36.5 157.891H76.5C76.1667 146.224 75.7 120.891 76.5 112.891C77.3 104.891 86.5 103.891 91 104.391C97.4 105.591 103.667 113.891 106 117.891V157.891C117.6 158.291 125.167 163.057 127.5 165.391C137.5 176.191 131.667 185.224 127.5 188.391C100.5 188.557 42.2 188.791 25 188.391C7.8 187.991 1.16667 176.224 0 170.391V8.89122Z" fill="white"/>
<path d="M169.5 108L182.5 95.4997L204 115.5L175.5 141.5C169.9 145.5 164.5 143.167 162.5 141.5L71.5002 53.9997C67.9002 35.1997 82.6668 32.4997 90.5002 33.4997L169.5 108Z" fill="#D5B89A"/>
<path d="M204 115.488L182 94.9879L263.5 17.9879C272.7 14.3879 278.333 21.4879 280 25.4879V182.988C277.2 193.788 258.833 194.155 250 192.988V72.4879L204 115.488Z" fill="white"/>
</svg>
