<svg width="629" height="229" viewBox="0 0 629 229" fill="none" xmlns="http://www.w3.org/2000/svg">
<path d="M12.032 51.368H31.36V57H6.08V42.088L2.24 44.328V38.696L6.08 36.456V12.2H12.032V32.936L22.08 26.984V32.616L12.032 38.568V51.368ZM64.9645 53.544C61.8498 56.4027 57.8178 57.832 52.8685 57.832C47.9192 57.832 43.8658 56.4027 40.7085 53.544C37.5938 50.6427 36.0365 46.7813 36.0365 41.96V12.2H41.9885V41.704C41.9885 44.8613 42.9272 47.3787 44.8045 49.256C46.6818 51.0907 49.3698 52.008 52.8685 52.008C56.3672 52.008 59.0552 51.0907 60.9325 49.256C62.8098 47.3787 63.7485 44.8613 63.7485 41.704V12.2H69.6365V41.96C69.6365 46.7813 68.0792 50.6427 64.9645 53.544ZM111.314 57H104.018L84.6895 35.496V57H78.7375V12.2H84.6895V32.424L103.378 12.2H110.674L90.8975 33.96L111.314 57ZM146.929 57L143.281 46.952H123.121L119.473 57H113.137L129.841 12.2H136.561L153.265 57H146.929ZM125.169 41.384H141.233L133.169 19.304L125.169 41.384ZM171.827 57.832C167.645 57.832 164.061 56.8507 161.075 54.888C158.131 52.9253 156.061 50.2373 154.867 46.824L159.987 43.88C161.736 49.2987 165.725 52.008 171.955 52.008C175.027 52.008 177.373 51.3893 178.995 50.152C180.616 48.872 181.427 47.1867 181.427 45.096C181.427 42.9627 180.616 41.3627 178.995 40.296C177.373 39.2293 174.664 38.0987 170.867 36.904C168.989 36.3067 167.56 35.8373 166.579 35.496C165.597 35.112 164.36 34.5573 162.867 33.832C161.416 33.064 160.328 32.296 159.603 31.528C158.877 30.7173 158.216 29.672 157.619 28.392C157.064 27.112 156.786 25.6613 156.786 24.04C156.786 20.1573 158.152 17.0853 160.883 14.824C163.613 12.52 166.941 11.368 170.867 11.368C174.408 11.368 177.48 12.264 180.083 14.056C182.728 15.848 184.712 18.216 186.035 21.16L181.043 24.04C179.123 19.432 175.731 17.128 170.867 17.128C168.435 17.128 166.472 17.7253 164.979 18.92C163.485 20.1147 162.739 21.736 162.739 23.784C162.739 25.7467 163.443 27.24 164.851 28.264C166.259 29.288 168.691 30.3547 172.147 31.464C173.384 31.848 174.259 32.1253 174.771 32.296C175.283 32.4667 176.072 32.7653 177.139 33.192C178.248 33.6187 179.059 33.96 179.571 34.216C180.083 34.472 180.765 34.8347 181.619 35.304C182.515 35.7733 183.176 36.2213 183.603 36.648C184.029 37.0747 184.52 37.608 185.075 38.248C185.672 38.8453 186.099 39.464 186.354 40.104C186.611 40.744 186.824 41.4907 186.995 42.344C187.208 43.1547 187.315 44.0293 187.315 44.968C187.315 48.8933 185.885 52.0293 183.027 54.376C180.168 56.68 176.435 57.832 171.827 57.832ZM198.411 51.368H220.619V57H191.371V51.816L213.003 17.832H191.947V12.2H220.107V17.32L198.411 51.368ZM105 99V197H85.82V133.44L58.24 178.94H56L28.42 133.58V197H9.1V99H28.98L57.12 145.34L85.12 99H105ZM142.58 178.52H183.88V197H183.74C178.887 202.133 176.46 206.567 176.46 210.3C176.273 212.82 177.44 214.08 179.96 214.08C180.987 214.173 182.247 213.94 183.74 213.38V224.72C180.193 226.213 176.46 226.96 172.54 226.96C168.527 226.96 165.26 225.887 162.74 223.74C160.313 221.687 159.1 218.653 159.1 214.64C159.1 209.32 162.18 203.44 168.34 197H123.26V99H183.18V117.48H142.58V138.34H179.68V156.54H142.58V178.52ZM236.418 99C249.858 99 261.058 103.713 270.018 113.14C279.072 122.567 283.598 134.187 283.598 148C283.598 161.813 279.072 173.433 270.018 182.86C261.058 192.287 249.858 197 236.418 197H197.498V99H236.418ZM236.418 178.52C244.912 178.52 251.818 175.72 257.138 170.12C262.458 164.427 265.118 157.053 265.118 148C265.118 138.947 262.458 131.62 257.138 126.02C251.818 120.327 244.912 117.48 236.418 117.48H216.818V178.52H236.418ZM316.623 178.52H357.923V197H297.303V99H357.223V117.48H316.623V138.34H353.723V156.54H316.623V178.52ZM425.301 197L405.561 162.98H390.861V197H371.541V99H410.741C419.795 99 427.495 102.173 433.841 108.52C440.188 114.867 443.361 122.52 443.361 131.48C443.361 137.547 441.635 143.193 438.181 148.42C434.728 153.553 430.155 157.427 424.461 160.04L446.161 197H425.301ZM390.861 117.06V146.04H410.741C414.381 146.04 417.508 144.64 420.121 141.84C422.735 138.947 424.041 135.493 424.041 131.48C424.041 127.467 422.735 124.06 420.121 121.26C417.508 118.46 414.381 117.06 410.741 117.06H390.861ZM520.538 197L514.658 179.36H475.598L469.718 197H448.858L483.158 99H507.098L541.538 197H520.538ZM481.758 161.3H508.638L495.198 121.26L481.758 161.3ZM627.633 197H605.373L570.373 151.08V197H551.053V99H570.373V142.26L603.973 99H626.233L589.973 146.6L627.633 197Z" fill="#00092F"/>
</svg>
